<?xml version="1.0" encoding="UTF-8"?>
<svg version="1.1" xmlns="http://www.w3.org/2000/svg" width="322" height="255">
<path d="M0 0 C14.07529312 0.03057907 25.91009598 1.98487862 36.32202148 12.38085938 C42.43065252 20.5778069 46.48332857 29.42570983 46.73608398 39.70507812 C46.75554077 40.42405777 46.77499756 41.14303741 46.79504395 41.88380432 C46.85605422 44.2785369 46.90224853 46.67327164 46.94702148 49.06835938 C46.98457062 50.76660264 47.02216951 52.4648448 47.05981445 54.16308594 C47.36415557 68.9840396 47.42647955 83.8071855 47.44702148 98.63085938 C47.44970032 99.73513275 47.45237915 100.83940613 47.45513916 101.97714233 C47.46100462 105.15862283 47.45926711 108.34000322 47.45483398 111.52148438 C47.4577948 112.92413292 47.4577948 112.92413292 47.46081543 114.3551178 C47.40664075 129.99884691 45.07044489 142.92551578 34.25952148 154.94335938 C25.67329086 163.28954484 13.80544216 165.6725747 2.28198242 165.69970703 C0.80467148 165.71477547 0.80467148 165.71477547 -0.70248413 165.73014832 C-3.94951842 165.7609559 -7.19646947 165.77802912 -10.44360352 165.79492188 C-12.71979451 165.81366192 -14.99597877 165.83323738 -17.27215576 165.85360718 C-23.26859445 165.90492868 -29.26505628 165.944508 -35.26159668 165.98175049 C-41.30149247 166.0214668 -47.34128682 166.072925 -53.38110352 166.12304688 C-69.35416591 166.25174738 -69.35416591 166.25174738 -77.00370884 166.29931355 C-79.03302674 166.31346395 -81.06232049 166.33178918 -83.09155941 166.35460949 C-87.77481251 166.39995323 -92.42748918 166.37170637 -97.10603333 166.1446991 C-106.95141569 165.46212567 -106.95141569 165.46212567 -115.73730469 169.29907227 C-117.68931283 171.21772536 -117.68931283 171.21772536 -119.47094727 173.35351562 C-120.15755936 174.06938339 -120.84417145 174.78525116 -121.55158997 175.52281189 C-123.70587732 177.78860299 -125.78434254 180.11042026 -127.86547852 182.44335938 C-129.29632959 183.97834902 -130.73185812 185.50899237 -132.17211914 187.03515625 C-134.20799392 189.19432169 -136.23559821 191.35665695 -138.22758484 193.55641174 C-141.89261168 197.59728345 -145.7093121 201.25121245 -149.8553009 204.79637146 C-152.19457481 206.82994624 -154.33881979 209.01118174 -156.47485352 211.25585938 C-157.28825195 212.09503906 -158.10165039 212.93421875 -158.93969727 213.79882812 C-160.62170503 215.54420824 -162.29600938 217.29703987 -163.96313477 219.05664062 C-164.77137695 219.88550781 -165.57961914 220.714375 -166.41235352 221.56835938 C-167.13648438 222.32503906 -167.86061523 223.08171875 -168.60668945 223.86132812 C-170.67797852 225.38085938 -170.67797852 225.38085938 -172.88208008 225.24414062 C-174.67797852 224.38085938 -174.67797852 224.38085938 -175.67797852 222.38085938 C-175.76880231 220.59354013 -175.79551651 218.80280448 -175.79150391 217.01318359 C-175.79139061 215.33166702 -175.79139061 215.33166702 -175.79127502 213.61618042 C-175.78611374 212.40157135 -175.78095245 211.18696228 -175.77563477 209.93554688 C-175.77421982 208.69539825 -175.77280487 207.45524963 -175.77134705 206.17752075 C-175.76668948 202.87967804 -175.75770291 199.58188391 -175.74664307 196.28405762 C-175.73641583 192.91919551 -175.73184661 189.55432629 -175.72680664 186.18945312 C-175.7157612 179.58656944 -175.69901098 172.98371838 -175.67797852 166.38085938 C-176.45104843 166.35940353 -177.22411835 166.33794769 -178.02061462 166.31584167 C-181.56160785 166.21337964 -185.1021699 166.09993866 -188.64282227 165.98632812 C-189.85885132 165.95277222 -191.07488037 165.91921631 -192.32775879 165.88464355 C-207.04685157 165.39409013 -220.84513692 162.74312843 -231.49047852 151.75585938 C-239.2131513 142.1753738 -242.6950863 128.5861528 -241.67797852 116.38085938 C-240.6606108 113.61943272 -240.3162711 112.70000567 -237.67797852 111.38085938 C-231.30955746 110.91770148 -231.30955746 110.91770148 -228.80297852 112.75585938 C-226.42915269 116.1847189 -226.5540682 118.73791246 -226.42797852 122.88085938 C-225.81996024 131.74703633 -223.40929783 138.08144992 -216.99047852 144.31835938 C-207.9236933 151.52094576 -196.05744412 151.46527564 -184.97485352 151.33007812 C-183.95157959 151.31952393 -182.92830566 151.30896973 -181.87402344 151.2980957 C-179.81142258 151.27029438 -177.74896011 151.22755746 -175.68701172 151.16870117 C-166.27766711 151.02115002 -166.27766711 151.02115002 -162.67797852 154.38085938 C-160.97685073 157.89079074 -160.44248102 160.63269644 -160.51782227 164.51367188 C-160.53425781 165.97160156 -160.53425781 165.97160156 -160.55102539 167.45898438 C-160.57229492 168.46445313 -160.59356445 169.46992188 -160.61547852 170.50585938 C-160.65058713 172.4875455 -160.68054924 174.4693296 -160.70532227 176.45117188 C-160.72328857 177.32531738 -160.74125488 178.19946289 -160.75976562 179.10009766 C-160.64055634 183.88199129 -160.14951115 188.62245322 -159.67797852 193.38085938 C-159.24251205 192.94095169 -158.80704559 192.50104401 -158.35838318 192.04780579 C-153.80561484 187.45062743 -149.24569264 182.8606338 -144.68164062 178.2746582 C-142.98157017 176.56455974 -141.28330284 174.8526667 -139.58691406 173.13891602 C-137.14157818 170.66919134 -134.68972889 168.20609425 -132.23657227 165.74414062 C-131.48524521 164.982491 -130.73391815 164.22084137 -129.95982361 163.43611145 C-129.23960526 162.71574203 -128.5193869 161.99537262 -127.77734375 161.25317383 C-127.1533519 160.62474075 -126.52936005 159.99630768 -125.88645935 159.34883118 C-119.93186111 154.04270343 -116.10449222 151.63172306 -107.98999023 151.72143555 C-107.14797562 151.71095184 -106.305961 151.70046814 -105.43843079 151.68966675 C-102.66113192 151.6609469 -99.88508706 151.66721864 -97.10766602 151.67382812 C-95.14688605 151.66067831 -93.18611954 151.64536418 -91.22537231 151.62800598 C-86.05136061 151.58812242 -80.87769944 151.57797217 -75.70355225 151.57397461 C-70.54647455 151.5647832 -65.38962135 151.52717458 -60.23266602 151.4921875 C-45.7109164 151.40203774 -31.18899606 151.32553409 -16.66723633 151.44189453 C-15.32610152 151.45043653 -13.98496587 151.4588493 -12.64382935 151.46711731 C-10.2855673 151.48430377 -7.9273403 151.50995123 -5.56930542 151.54692078 C4.67579818 151.62129567 16.20336992 151.10431963 24.07592773 143.74023438 C37.35414544 129.02220993 32.66716008 99.81716225 32.63769531 81.06640625 C32.6318473 77.03342896 32.64901528 73.00090302 32.67203999 68.96800041 C32.68684786 65.81588137 32.68764065 62.66387023 32.68453026 59.51172256 C32.68503767 58.02478246 32.69016419 56.53783538 32.70034218 55.05093002 C32.76899468 43.64846905 31.98795494 32.98764582 25.32202148 23.38085938 C18.837684 17.23780281 12.14846723 15.80975427 3.57202148 14.81835938 C1.6804727 14.59559959 -0.21022928 14.3654882 -2.09985352 14.12695312 C-2.93097656 14.0308374 -3.76209961 13.93472168 -4.6184082 13.83569336 C-6.67797852 13.38085938 -6.67797852 13.38085938 -8.67797852 11.38085938 C-8.94360352 9.28710937 -8.94360352 9.28710937 -8.92797852 6.88085938 C-8.93571289 5.68976562 -8.93571289 5.68976562 -8.94360352 4.47460938 C-8.28547776 -0.71297014 -4.14801138 0.07366413 0 0 Z " fill="#E8D8B7" transform="translate(261.677978515625,19.619140625)"/>
<path d="M0 0 C3.05677384 0.00423477 6.11354689 0.00716305 9.17032242 0.00988388 C56.18122712 0.05729632 56.18122712 0.05729632 77.36902237 0.39364243 C79.40891311 0.42541856 81.44888052 0.45263161 83.48889542 0.47506332 C86.20001528 0.50727747 88.90995581 0.55861 91.62060928 0.61745834 C92.38666992 0.62385834 93.15273056 0.63025833 93.94200516 0.63685226 C96.01587296 0.69680405 96.01587296 0.69680405 99.26514053 1.12917709 C101.59263398 4.62041726 101.7681337 6.0213996 101.26514053 10.12917709 C99.38586685 12.70447806 98.13486562 13.89468259 95.04269218 14.72839165 C91.82836861 15.19220088 88.76048915 15.24239247 85.51181412 15.22924423 C84.84560063 15.22798196 84.17938714 15.22671969 83.49298537 15.22541916 C81.2677434 15.22005553 79.04259943 15.20753278 76.81738663 15.19509506 C75.21875529 15.18989975 73.6201223 15.18519204 72.02148819 15.18093491 C68.58116919 15.1710024 65.1408776 15.15815546 61.70057678 15.14321136 C56.25316541 15.12011081 50.80575771 15.10683245 45.3583107 15.0955162 C29.86838463 15.0621163 14.37851254 15.02057805 -1.11132431 14.95779037 C-9.66815314 14.92318796 -18.22494166 14.89942989 -26.78183305 14.88758194 C-31.30547559 14.88083152 -35.82894712 14.86845756 -40.3525238 14.84255219 C-44.61249312 14.81815767 -48.87226822 14.80790858 -53.13230515 14.80814743 C-54.68866164 14.8057411 -56.24502069 14.7982347 -57.80132294 14.78501892 C-69.55283865 14.68945871 -81.34271669 15.20989307 -90.73485947 23.12917709 C-97.60246584 30.60996261 -98.00946146 38.35758403 -97.97314072 48.13308334 C-97.98855223 50.50613599 -98.00485525 52.87918299 -98.02196884 55.25222397 C-98.0384571 58.98078531 -98.04732685 62.70893169 -98.04027939 66.4375267 C-98.03766487 70.04485469 -98.0657319 73.65092336 -98.09814072 77.25808334 C-98.08793396 78.37276489 -98.0777272 79.48744644 -98.06721115 80.63590622 C-98.16488475 88.34861503 -98.16488475 88.34861503 -101.07934189 92.33987045 C-104.30130562 94.51085254 -105.92462863 94.79182594 -109.73485947 94.12917709 C-111.93854365 92.49579639 -112.6459787 91.53457694 -113.23778915 88.83523178 C-113.74574371 80.46425806 -113.95406978 72.10704849 -113.97509384 63.72195053 C-113.98478772 61.39638946 -114.01592248 59.07171949 -114.04735947 56.74636459 C-114.15046265 42.28762577 -113.03716258 28.45490402 -104.73485947 16.12917709 C-104.35587509 15.53749741 -103.97689072 14.94581772 -103.58642197 14.33620834 C-98.10331779 6.77263556 -88.57060903 3.00589091 -79.73485947 1.12917709 C-74.3167014 0.61894006 -68.90654378 0.52673929 -63.46923447 0.44948959 C-61.8438747 0.41681831 -60.21852895 0.38344327 -58.59319687 0.34942245 C-39.06522151 -0.02875504 -19.53084566 -0.02758922 0 0 Z " fill="#E8D9B8" transform="translate(133.73485946655273,18.87082290649414)"/>
<path d="M0 0 C4.1455362 4.0392404 5.61120009 7.52257789 5.9375 13.25 C5.40143493 31.13507994 -4.18181989 46.24809664 -16.5625 58.375 C-20.88203177 62.43484048 -24.79788209 63.97387438 -30.64453125 64.52734375 C-32.5625 64.375 -32.5625 64.375 -34.5625 62.375 C-35.6263317 57.05584152 -33.3713994 53.76411992 -30.62109375 49.4375 C-27.57074216 44.89959555 -24.48515376 40.38600369 -21.34643555 35.90869141 C-20.88664307 35.25046387 -20.42685059 34.59223633 -19.953125 33.9140625 C-19.54094727 33.32834473 -19.12876953 32.74262695 -18.70410156 32.13916016 C-16.19459676 28.26112729 -15.18897593 24.96915679 -14.5625 20.375 C-20.11432522 22.96302333 -24.64084161 25.75544945 -29.3125 29.6875 C-75.29414048 67.33891909 -75.29414048 67.33891909 -95.29296875 67.73828125 C-98.05488442 67.29618459 -98.88971222 66.57767708 -100.5625 64.375 C-101.5 61.5625 -101.5 61.5625 -101.5625 58.375 C-98.57013359 52.71087786 -98.57013359 52.71087786 -94.5625 51.375 C-94.2325 53.025 -93.9025 54.675 -93.5625 56.375 C-86.88392066 52.50794777 -80.55594403 48.36826155 -74.375 43.75 C-73.1533313 42.84302368 -73.1533313 42.84302368 -71.90698242 41.91772461 C-60.61974903 33.49114317 -49.55126158 24.77889384 -39.21484375 15.19921875 C-33.62977937 10.06303126 -27.93457568 5.50008057 -21.5625 1.375 C-20.61375 0.735625 -19.665 0.09625 -18.6875 -0.5625 C-12.4535614 -2.68203912 -6.00112557 -2.73735552 0 0 Z " fill="#E7D8B7" transform="translate(203.5625,75.625)"/>
<path d="M0 0 C1.02802734 0.00966797 2.05605469 0.01933594 3.11523438 0.02929688 C4.72301758 0.06700195 4.72301758 0.06700195 6.36328125 0.10546875 C7.44673828 0.11900391 8.53019531 0.13253906 9.64648438 0.14648438 C12.3234153 0.18186232 14.99934963 0.23122686 17.67578125 0.29296875 C17.67578125 0.62296875 17.67578125 0.95296875 17.67578125 1.29296875 C16.51949219 1.38384766 16.51949219 1.38384766 15.33984375 1.4765625 C13.83550781 1.60224609 13.83550781 1.60224609 12.30078125 1.73046875 C10.80417969 1.85228516 10.80417969 1.85228516 9.27734375 1.9765625 C6.69650512 2.14262501 6.69650512 2.14262501 4.67578125 3.29296875 C2.46848895 3.36389717 0.25910673 3.377119 -1.94921875 3.35546875 C-3.13773438 3.34644531 -4.32625 3.33742187 -5.55078125 3.328125 C-6.46601563 3.31652344 -7.38125 3.30492187 -8.32421875 3.29296875 C-5.79060787 0.07680384 -4.00404798 -0.06636544 0 0 Z " fill="#EFE8D4" transform="translate(241.32421875,170.70703125)"/>
<path d="M0 0 C0.66 0.33 1.32 0.66 2 1 C-0.3301497 5.53084664 -3.06445968 7.90180868 -7 11 C-9.05270463 12.84188612 -9.05270463 12.84188612 -10 15 C-12.5625 15.625 -12.5625 15.625 -15 16 C-10.30233025 10.33870569 -5.25276628 5.14771096 0 0 Z " fill="#EBE2CE" transform="translate(123,192)"/>
<path d="M0 0 C0.99 0.33 1.98 0.66 3 1 C2.01 1.33 1.02 1.66 0 2 C0 2.99 0 3.98 0 5 C-1.75 6.75 -1.75 6.75 -4 8 C-6.140625 7.578125 -6.140625 7.578125 -8 7 C-6.74057614 5.80040625 -5.46704714 4.61560557 -4.1875 3.4375 C-3.12595703 2.44556641 -3.12595703 2.44556641 -2.04296875 1.43359375 C-1.36878906 0.96050781 -0.69460937 0.48742187 0 0 Z " fill="#E9DEC1" transform="translate(140,176)"/>
<path d="M0 0 C3.3 1.98 6.6 3.96 10 6 C9.34 6.66 8.68 7.32 8 8 C6.6589523 7.24266726 5.32730219 6.46867264 4 5.6875 C2.88625 5.04361328 2.88625 5.04361328 1.75 4.38671875 C1.1725 3.92910156 0.595 3.47148437 0 3 C0 2.01 0 1.02 0 0 Z " fill="#E8DDC4" transform="translate(286,24)"/>
<path d="M0 0 C0 1.32 0 2.64 0 4 C-0.99 4.33 -1.98 4.66 -3 5 C-3.99 3.68 -4.98 2.36 -6 1 C-3.92446352 0.4465236 -2.15634036 0 0 0 Z " fill="#E7DCC4" transform="translate(109,138)"/>
<path d="M0 0 C0.99 0.66 1.98 1.32 3 2 C0.03 3.65 -2.94 5.3 -6 7 C-4.11656068 3.23312136 -3.30867531 2.20578354 0 0 Z " fill="#E5DBC5" transform="translate(139,128)"/>
<path d="M0 0 C2.31 0 4.62 0 7 0 C3.25 3.875 3.25 3.875 1 5 C0.67 3.35 0.34 1.7 0 0 Z " fill="#DDD3B4" transform="translate(189,74)"/>
</svg>
